<svg id="Layer_1" data-name="Layer 1" xmlns="http://www.w3.org/2000/svg" viewBox="0 0 97.72 93.83"><defs><style>.cls-1{fill:#fff;}</style></defs><title>3men</title><path class="cls-1" d="M69.88,46.72H28.24a1.1,1.1,0,0,1-.88-.44,1.07,1.07,0,0,1-.2-1,12.11,12.11,0,0,1,9.49-8.46c5.7-1,5.68-2.4,5.67-3.41V32.9a13.47,13.47,0,0,1-3-5.76c-2.33-.84-2.87-4.94-2.87-6a5,5,0,0,1,1.09-3.54,2.59,2.59,0,0,1,.77-.55c-.56-2.71-1.13-7.34.84-9.85A3.87,3.87,0,0,1,42,5.63C47.14,2.17,53.52,1.9,57.59,5c3.42,2.61,4.5,7,3,12.05a2.52,2.52,0,0,1,.7.51A5,5,0,0,1,62.4,21c0,1-.55,5.35-3,6.13a14.31,14.31,0,0,1-3.69,5.6v.34c0,.82,0,2.54,6.31,3.75A11.26,11.26,0,0,1,71,45.34a1.12,1.12,0,0,1-.21.95A1.14,1.14,0,0,1,69.88,46.72Zm-40-2.24H68.34a9,9,0,0,0-6.71-5.41h0c-7.16-1.37-8.13-3.78-8.13-6v-.84a1.1,1.1,0,0,1,.39-.84,12.05,12.05,0,0,0,3.62-5.59,1.11,1.11,0,0,1,1.07-.79c.86,0,1.58-2.84,1.58-3.95a3.24,3.24,0,0,0-.41-2,.72.72,0,0,0-.55-.18,1.11,1.11,0,0,1-1-1.49c1.64-4.62.94-8.51-1.91-10.69C52.85,4.21,47.4,4.57,43,7.66a1.13,1.13,0,0,1-.64.2,1.71,1.71,0,0,0-1.45.68c-1.12,1.43-1.18,5-.17,9A1.11,1.11,0,0,1,39.62,19a.66.66,0,0,0-.53.18,2.86,2.86,0,0,0-.43,1.9c0,1.14.69,4,1.52,4a1.12,1.12,0,0,1,1.08.82c.57,2.05,1.36,4.34,2.92,5.7a1.12,1.12,0,0,1,.38.84v1c0,2.08-.54,4.39-7.51,5.65A9.8,9.8,0,0,0,29.89,44.48Z" transform="translate(-1.14 -2.84)"/><path class="cls-1" d="M43.9,96.68H2.26a1.12,1.12,0,0,1-1.08-1.41,12.12,12.12,0,0,1,9.49-8.45c5.7-1,5.68-2.41,5.67-3.41v-.55a13.34,13.34,0,0,1-3-5.77c-2.33-.84-2.87-4.93-2.87-6a5,5,0,0,1,1.08-3.55A2.79,2.79,0,0,1,12.3,67c-.56-2.71-1.13-7.34.84-9.85A3.87,3.87,0,0,1,16,55.59c5.18-3.46,11.56-3.73,15.63-.63,3.42,2.61,4.49,7,3,12.05a2.88,2.88,0,0,1,.7.5A5,5,0,0,1,36.41,71c0,1-.54,5.35-3,6.13a14.18,14.18,0,0,1-3.68,5.6v.34c0,.82,0,2.54,6.3,3.75A11.26,11.26,0,0,1,45,95.3a1.12,1.12,0,0,1-.21,1A1.14,1.14,0,0,1,43.9,96.68Zm-40-2.24H42.36A9,9,0,0,0,35.65,89h0c-7.16-1.37-8.13-3.78-8.13-6v-.84a1.1,1.1,0,0,1,.39-.84,12,12,0,0,0,3.61-5.59A1.13,1.13,0,0,1,32.59,75c.86,0,1.58-2.84,1.58-4,0-.43,0-1.54-.42-2a.66.66,0,0,0-.54-.18,1.12,1.12,0,0,1-.91-.48,1.09,1.09,0,0,1-.14-1c1.63-4.61.94-8.5-1.91-10.68-3.38-2.57-8.83-2.21-13.26.87a1.07,1.07,0,0,1-.64.21,1.68,1.68,0,0,0-1.45.68c-1.12,1.43-1.19,5-.17,9a1.13,1.13,0,0,1-1.09,1.39.65.65,0,0,0-.53.18,2.86,2.86,0,0,0-.43,1.9c0,1.14.69,4,1.52,4a1.12,1.12,0,0,1,1.08.82c.57,2,1.36,4.34,2.92,5.7a1.12,1.12,0,0,1,.38.84v1c0,2.07-.54,4.39-7.52,5.65A9.78,9.78,0,0,0,3.91,94.44Z" transform="translate(-1.14 -2.84)"/><path class="cls-1" d="M97.74,96.68H56.1a1.1,1.1,0,0,1-.88-.44,1.09,1.09,0,0,1-.2-1,12.12,12.12,0,0,1,9.49-8.45c5.7-1,5.68-2.41,5.67-3.41v-.55a13.45,13.45,0,0,1-3-5.77c-2.33-.84-2.87-4.93-2.87-6a5,5,0,0,1,1.09-3.55,2.9,2.9,0,0,1,.77-.54c-.56-2.71-1.13-7.34.84-9.85a3.87,3.87,0,0,1,2.84-1.53C75,52.13,81.38,51.86,85.45,55c3.42,2.61,4.5,7,3,12.05a2.83,2.83,0,0,1,.69.5A5,5,0,0,1,90.26,71c0,1-.55,5.35-3,6.13a14.31,14.31,0,0,1-3.69,5.6v.34c0,.82,0,2.54,6.31,3.75a11.26,11.26,0,0,1,8.93,8.48,1.12,1.12,0,0,1-1.09,1.38Zm-40-2.24H96.2A9,9,0,0,0,89.49,89h0c-7.16-1.37-8.13-3.78-8.13-6v-.84a1.1,1.1,0,0,1,.39-.84,12.05,12.05,0,0,0,3.62-5.59A1.11,1.11,0,0,1,86.43,75c.86,0,1.59-2.84,1.59-4,0-.43,0-1.54-.42-2a.68.68,0,0,0-.55-.18,1.13,1.13,0,0,1-1-1.5c1.64-4.61.94-8.5-1.91-10.68-3.37-2.57-8.83-2.21-13.26.87a1.07,1.07,0,0,1-.64.21,1.69,1.69,0,0,0-1.44.67c-1.12,1.44-1.19,5-.18,9a1.11,1.11,0,0,1-1.09,1.39.66.66,0,0,0-.53.18,2.86,2.86,0,0,0-.43,1.9c0,1.14.69,4,1.52,4a1.11,1.11,0,0,1,1.08.82c.57,2,1.36,4.34,2.92,5.7a1.12,1.12,0,0,1,.38.84v1c0,2.07-.53,4.39-7.51,5.65A9.8,9.8,0,0,0,57.75,94.44Z" transform="translate(-1.14 -2.84)"/></svg>