<svg id="Layer_1" data-name="Layer 1" xmlns="http://www.w3.org/2000/svg" xmlns:xlink="http://www.w3.org/1999/xlink" viewBox="0 0 97.89 84.24"><defs><style>.cls-1{fill:none;}.cls-2{fill:#fff;}.cls-3{stroke:#fff;stroke-miterlimit:10;stroke-width:2px;}.cls-4{clip-path:url(#clip-path);}.cls-5{fill:url(#linear-gradient);}.cls-6{clip-path:url(#clip-path-2);}.cls-7{fill:url(#linear-gradient-2);}.cls-8{clip-path:url(#clip-path-3);}.cls-9{fill:url(#linear-gradient-3);}.cls-10{clip-path:url(#clip-path-4);}.cls-11{fill:url(#linear-gradient-4);}.cls-12{clip-path:url(#clip-path-5);}.cls-13{fill:url(#linear-gradient-5);}.cls-14{clip-path:url(#clip-path-6);}.cls-15{fill:url(#linear-gradient-6);}.cls-16{clip-path:url(#clip-path-7);}.cls-17{fill:url(#linear-gradient-7);}.cls-18{clip-path:url(#clip-path-8);}.cls-19{fill:url(#linear-gradient-8);}.cls-20{clip-path:url(#clip-path-9);}.cls-21{fill:url(#linear-gradient-9);}.cls-22{clip-path:url(#clip-path-10);}.cls-23{fill:url(#linear-gradient-10);}.cls-24{clip-path:url(#clip-path-11);}.cls-25{fill:url(#linear-gradient-11);}.cls-26{clip-path:url(#clip-path-12);}.cls-27{fill:url(#linear-gradient-12);}.cls-28{clip-path:url(#clip-path-13);}.cls-29{fill:url(#linear-gradient-13);}.cls-30{clip-path:url(#clip-path-14);}.cls-31{fill:url(#linear-gradient-14);}.cls-32{clip-path:url(#clip-path-15);}.cls-33{fill:url(#linear-gradient-15);}.cls-34{clip-path:url(#clip-path-16);}.cls-35{fill:url(#linear-gradient-16);}.cls-36{clip-path:url(#clip-path-17);}.cls-37{fill:url(#linear-gradient-17);}.cls-38{clip-path:url(#clip-path-18);}.cls-39{fill:url(#linear-gradient-18);}.cls-40{clip-path:url(#clip-path-19);}.cls-41{fill:url(#linear-gradient-19);}.cls-42{clip-path:url(#clip-path-20);}.cls-43{fill:url(#linear-gradient-20);}.cls-44{clip-path:url(#clip-path-21);}.cls-45{fill:url(#linear-gradient-21);}.cls-46{clip-path:url(#clip-path-22);}.cls-47{fill:url(#linear-gradient-22);}.cls-48{clip-path:url(#clip-path-23);}.cls-49{fill:url(#linear-gradient-23);}.cls-50{clip-path:url(#clip-path-24);}.cls-51{fill:url(#linear-gradient-24);}.cls-52{clip-path:url(#clip-path-25);}.cls-53{fill:url(#linear-gradient-25);}.cls-54{clip-path:url(#clip-path-26);}.cls-55{fill:url(#linear-gradient-26);}.cls-56{clip-path:url(#clip-path-27);}.cls-57{fill:url(#linear-gradient-27);}.cls-58{clip-path:url(#clip-path-28);}.cls-59{fill:url(#linear-gradient-28);}.cls-60{clip-path:url(#clip-path-29);}.cls-61{fill:url(#linear-gradient-29);}.cls-62{clip-path:url(#clip-path-30);}.cls-63{fill:url(#linear-gradient-30);}.cls-64{clip-path:url(#clip-path-31);}.cls-65{fill:url(#linear-gradient-31);}.cls-66{clip-path:url(#clip-path-32);}.cls-67{fill:url(#linear-gradient-32);}</style><clipPath id="clip-path" transform="translate(-2.22 -9.67)"><path class="cls-1" d="M83,70.77a4.27,4.27,0,0,0-1.19.55,4.1,4.1,0,0,0-1.45,1.6l-.88,1.59a2.31,2.31,0,0,1-.19.28h.15a5.14,5.14,0,0,1,.55.06c.28.07.57.17.85.26a5.23,5.23,0,0,0,1.71.23c.11,0,.22,0,.34,0A3.8,3.8,0,0,0,84,75a6.88,6.88,0,0,0,1.86-1.2c.23-.2.46-.39.67-.61s.53-.55.8-.83l.87-.87c0-.05.09-.11.14-.17h-.25a7,7,0,0,1-.8,0c-.37,0-.74-.1-1.1-.17s-.66-.17-1-.23-.68-.12-1-.17l-.47,0a2.82,2.82,0,0,0-.71.09"/></clipPath><linearGradient id="linear-gradient" x1="26.94" y1="75.53" x2="28.08" y2="75.53" gradientTransform="matrix(0, 24.83, 24.83, 0, -1791.56, -617.85)" gradientUnits="userSpaceOnUse"><stop offset="0" stop-color="#cc5955"/><stop offset="0.08" stop-color="#cc5955"/><stop offset="0.18" stop-color="#9a2720"/><stop offset="0.33" stop-color="#490000"/><stop offset="0.5" stop-color="#c71d2b"/><stop offset="0.52" stop-color="#ab151f"/><stop offset="0.57" stop-color="#630101"/><stop offset="0.57" stop-color="#5f0000"/><stop offset="0.72" stop-color="#6c0300"/><stop offset="0.79" stop-color="#490000"/><stop offset="0.98" stop-color="#cc5955"/><stop offset="1" stop-color="#cc5955"/></linearGradient><clipPath id="clip-path-2" transform="translate(-2.22 -9.67)"><path class="cls-1" d="M69.76,70.71a5.43,5.43,0,0,0-.69.09L68,71l-1.1.22a4.86,4.86,0,0,1-1,.08H65.5a3.2,3.2,0,0,0,.24.26c.22.23.45.44.67.67s.61.66.93,1,.64.57,1,.84a5,5,0,0,0,.62.44,5.12,5.12,0,0,0,1.6.72,4.26,4.26,0,0,0,1.74,0A7.56,7.56,0,0,0,73.48,75a4.47,4.47,0,0,1,.61-.14l.45,0a2,2,0,0,1-.18-.26c-.29-.53-.59-1.06-.88-1.6a4.27,4.27,0,0,0-.84-1.12,3.35,3.35,0,0,0-.93-.66,9.37,9.37,0,0,0-.87-.36,2.27,2.27,0,0,0-.68-.09,2.68,2.68,0,0,0-.4,0"/></clipPath><linearGradient id="linear-gradient-2" x1="26.94" y1="75.51" x2="28.08" y2="75.51" gradientTransform="matrix(0, 24.83, 24.83, 0, -1804.74, -604.07)" xlink:href="#linear-gradient"/><clipPath id="clip-path-3" transform="translate(-2.22 -9.67)"><path class="cls-1" d="M76.93,62.83a1.86,1.86,0,0,1-.1.2,6.35,6.35,0,0,1-.54.61c-.28.27-.58.5-.87.76a1.59,1.59,0,0,0-.6,1.31.84.84,0,0,0,.07.26.43.43,0,0,0,.54.26.4.4,0,0,0,.22-.27.65.65,0,0,1-.17.08.36.36,0,0,1-.4-.52.71.71,0,0,1,.31-.35.36.36,0,0,1,.4,0,.8.8,0,0,1,.4.65.86.86,0,0,1-.06.57,1,1,0,0,1-.74.54L75,67a3.28,3.28,0,0,1,1.89,2.17A3.34,3.34,0,0,1,78.82,67l-.08,0a1.12,1.12,0,0,1-.82-.3.86.86,0,0,1-.25-.49,1,1,0,0,1,.21-.82.47.47,0,0,1,.75,0l.05.06a.48.48,0,0,1,0,.57.22.22,0,0,1-.2.12,1.19,1.19,0,0,1-.3-.08h0a.42.42,0,0,0,.65.22.53.53,0,0,0,.18-.29,1.34,1.34,0,0,0-.27-1.17,3.74,3.74,0,0,0-.64-.62A4.29,4.29,0,0,1,76.93,62.83Z"/></clipPath><linearGradient id="linear-gradient-3" x1="26.94" y1="75.8" x2="28.08" y2="75.8" gradientTransform="matrix(0, 24.83, 24.83, 0, -1805.16, -617.72)" xlink:href="#linear-gradient"/><clipPath id="clip-path-4" transform="translate(-2.22 -9.67)"><path class="cls-1" d="M66.78,66.49l-1.26.59a8.63,8.63,0,0,1-.94.41,4,4,0,0,1-.93.24,2.1,2.1,0,0,1-1-.1,2.78,2.78,0,0,1-1.37-1,2.61,2.61,0,0,0-.22-.27s0,0,0,0a.24.24,0,0,0,0,.08,3.51,3.51,0,0,0,.65,1.26,4.4,4.4,0,0,0,1.46,1.27,4.82,4.82,0,0,0,2.06.45c.56,0,1.11,0,1.66,0H67a2,2,0,0,1-.39-.2,1.44,1.44,0,0,1-.46-1.41.8.8,0,0,1,0-.15,1.37,1.37,0,0,1,1.56-1,.93.93,0,0,1,.59.51.9.9,0,0,1-.42,1.19c-.32.15-.65,0-.7-.45,0-.23.14-.53.37-.54a.16.16,0,0,1,.13.06c.08.08.09.14,0,.29l0,.08c0,.08.12,0,.18,0a.29.29,0,0,0,.13-.26c0-.47-.49-.52-.82-.36a.89.89,0,0,0-.43.48A.9.9,0,0,0,67,68.85a1.11,1.11,0,0,0,.82.09,1.13,1.13,0,0,0,.53-.34,1.18,1.18,0,0,0,.36-.59,1.28,1.28,0,0,0,0-.65,1.24,1.24,0,0,0-.86-1,1.11,1.11,0,0,0-.29,0h-.09a1.75,1.75,0,0,0-.77.16"/></clipPath><linearGradient id="linear-gradient-4" x1="26.94" y1="75.7" x2="28.08" y2="75.7" gradientTransform="matrix(0, 24.83, 24.83, 0, -1814.72, -603.86)" xlink:href="#linear-gradient"/><clipPath id="clip-path-5" transform="translate(-2.22 -9.67)"><path class="cls-1" d="M61.84,73.11c.13.34.21.64.34,1a6.52,6.52,0,0,0,.69,1.37,4,4,0,0,0,1.23,1.18,2.69,2.69,0,0,0,1.71.4,1.43,1.43,0,0,0,1.11-.87,1.66,1.66,0,0,0-.12-1.57,1,1,0,0,0-.57-.43,1.16,1.16,0,0,0-.37,0,.9.9,0,0,0-.75.46,1.08,1.08,0,0,0-.11.88c.09.36.34.64.69.58a.38.38,0,0,0,.33-.32.45.45,0,0,1-.42-.21.61.61,0,0,1,0-.51.62.62,0,0,1,.59-.36.46.46,0,0,1,.45.34,1.34,1.34,0,0,1,.08.56,1.14,1.14,0,0,1-.34.85,1,1,0,0,1-.79.26,1.35,1.35,0,0,1-1.13-1,1.94,1.94,0,0,1-.07-.76.86.86,0,0,1,0-.21c.06-.14.11-.22.18-.36l-.18.1a1.22,1.22,0,0,1-.8.2,1.53,1.53,0,0,1-.83-.32,3,3,0,0,1-.85-1.08l-.17-.36.07.25"/></clipPath><linearGradient id="linear-gradient-5" x1="26.94" y1="75.42" x2="28.08" y2="75.42" gradientTransform="matrix(0, 24.83, 24.83, 0, -1808.11, -596.65)" xlink:href="#linear-gradient"/><clipPath id="clip-path-6" transform="translate(-2.22 -9.67)"><path class="cls-1" d="M70.79,65.73a1.32,1.32,0,0,0-.66.73A2.21,2.21,0,0,0,70.18,68a2.5,2.5,0,0,0,1.11,1.31c.29.17.6.3.89.46l.87.48a1.93,1.93,0,0,1-.28-2.18l-.11.12a1.19,1.19,0,0,1-.65.4.91.91,0,0,1-.93-.43,1.28,1.28,0,0,1-.25-.57,1,1,0,0,1,.43-1,.57.57,0,0,1,.69,0,.62.62,0,0,1,.19.62.41.41,0,0,1-.57.33,1.37,1.37,0,0,1-.17-.17.44.44,0,0,0,0,.32.52.52,0,0,0,.81.35,1,1,0,0,0,.44-1.08,1.36,1.36,0,0,0-.86-1.22,1.2,1.2,0,0,0-.52-.12,1,1,0,0,0-.49.13"/></clipPath><linearGradient id="linear-gradient-6" x1="26.94" y1="75.72" x2="28.08" y2="75.72" gradientTransform="matrix(0, 24.83, 24.83, 0, -1808.43, -610.45)" xlink:href="#linear-gradient"/><clipPath id="clip-path-7" transform="translate(-2.22 -9.67)"><path class="cls-1" d="M91.44,70.23a4.56,4.56,0,0,1-1.32,1,1.18,1.18,0,0,1,.37.14A1.24,1.24,0,0,1,90.88,73a.75.75,0,0,1-.56.47.64.64,0,0,1-.52-.17.47.47,0,0,1-.19-.53.54.54,0,0,1,.29-.36c.28-.1.49.08.46.41,0,.09,0,.2-.16.21a.19.19,0,0,0,.23,0,.6.6,0,0,0,.28-.55.79.79,0,0,0-.61-.82.85.85,0,0,0-.92.65,1.63,1.63,0,0,0,0,1,.76.76,0,0,0,.28.37,1,1,0,0,0,.89.1,1.46,1.46,0,0,0,.73-.58,4.85,4.85,0,0,0,.66-1.28,12.34,12.34,0,0,0,.65-2.51c0-.18,0-.36.06-.54l0,0a5.65,5.65,0,0,1-1,1.4"/></clipPath><linearGradient id="linear-gradient-7" x1="26.94" y1="75.61" x2="28.08" y2="75.61" gradientTransform="matrix(0, 24.83, 24.83, 0, -1786.57, -626.44)" xlink:href="#linear-gradient"/><clipPath id="clip-path-8" transform="translate(-2.22 -9.67)"><path class="cls-1" d="M61.41,69.42a14.35,14.35,0,0,0,.47,2,6.65,6.65,0,0,0,.75,1.67,1.39,1.39,0,0,0,1.3.76.78.78,0,0,0,.53-.27.89.89,0,0,0,.19-.36,2.52,2.52,0,0,0,0-.37,1.25,1.25,0,0,0,0-.39.86.86,0,0,0-1-.77.82.82,0,0,0-.49,1.19c.08.16.26.23.35.17a1,1,0,0,1-.09-.18.43.43,0,0,1,.16-.48.44.44,0,0,1,.56.31.53.53,0,0,1,0,.33.61.61,0,0,1-.55.44.65.65,0,0,1-.33-.06,1.12,1.12,0,0,1-.53-1,1.19,1.19,0,0,1,.34-.9.86.86,0,0,1,.58-.29,5.44,5.44,0,0,1-2.35-2.35,5.46,5.46,0,0,0,0,.57"/></clipPath><linearGradient id="linear-gradient-8" x1="26.94" y1="75.56" x2="28.08" y2="75.56" gradientTransform="matrix(0, 24.83, 24.83, 0, -1813.09, -598.71)" xlink:href="#linear-gradient"/><clipPath id="clip-path-9" transform="translate(-2.22 -9.67)"><path class="cls-1" d="M74.31,67.81a1.43,1.43,0,0,0-1.12.83,1.12,1.12,0,0,0,.07,1.22.54.54,0,0,0,1,0,.78.78,0,0,0,0-.67s0,0,0,0a.33.33,0,0,1-.47,0,.58.58,0,0,1-.06-.56.63.63,0,0,1,.77-.35.94.94,0,0,1,.6.93,1.57,1.57,0,0,1-.13.71c.89-.33,1.52.05,2,1a1.14,1.14,0,0,0-.06-.33,1.81,1.81,0,0,0-.76-1c-.23-.14-.47-.25-.7-.39a.76.76,0,0,1-.2-.2.28.28,0,0,1,0-.22.29.29,0,0,1,.19-.11.34.34,0,0,1,.21.06,2.23,2.23,0,0,1,.9.9c.1.16.23.38.32.55a.8.8,0,0,0-.09-.26,4.22,4.22,0,0,0-.92-1.46,1.75,1.75,0,0,0-1.24-.6h-.21"/></clipPath><linearGradient id="linear-gradient-9" x1="26.94" y1="75.66" x2="28.08" y2="75.66" gradientTransform="matrix(0, 24.83, 24.83, 0, -1803.75, -612.52)" xlink:href="#linear-gradient"/><clipPath id="clip-path-10" transform="translate(-2.22 -9.67)"><path class="cls-1" d="M78.06,70.4a1.57,1.57,0,0,0-.82.71A2.82,2.82,0,0,0,77,72.2a.5.5,0,0,1,0,.12s0,0,0,0l0-.12s0-.21,0-.27A1.85,1.85,0,0,0,76,70.49a.89.89,0,0,0-1.25.27.93.93,0,0,0-.07.89.54.54,0,0,0,.61.35.57.57,0,0,0,.43-.42.64.64,0,0,0-.1-.59c-.07-.06-.24-.1-.2,0a1.08,1.08,0,0,1,.16.26.46.46,0,0,1-.49.6.59.59,0,0,1-.36-.81.7.7,0,0,1,.71-.49.66.66,0,0,1,.63.64,1.16,1.16,0,0,1-.3,1,.39.39,0,0,0-.08.1,1.12,1.12,0,0,1,1.1.3,2.46,2.46,0,0,0-.29-.34c-.08-.08-.18-.13-.25-.21s-.11-.1-.08-.16.11-.05.16,0a.52.52,0,0,1,.36.32c.1.21.18.43.27.64l.2-.51a.74.74,0,0,1,.36-.43c.07,0,.15,0,.21,0s-.06.16-.11.19a1.63,1.63,0,0,0-.44.43l-.06.11a1.08,1.08,0,0,1,1.11-.31.29.29,0,0,0-.08-.1A1.25,1.25,0,0,1,77.84,71a.64.64,0,0,1,.58-.47.73.73,0,0,1,.66,1.1.4.4,0,0,1-.52.17.43.43,0,0,1-.28-.37.37.37,0,0,1,.19-.42c.1,0,0-.07-.06-.07l-.08,0a.31.31,0,0,0-.19.27.71.71,0,0,0,.26.73.54.54,0,0,0,.73-.16.94.94,0,0,0-.75-1.45.88.88,0,0,0-.32.07"/></clipPath><linearGradient id="linear-gradient-10" x1="26.94" y1="75.58" x2="28.08" y2="75.58" gradientTransform="matrix(0, 24.83, 24.83, 0, -1799.66, -612.42)" xlink:href="#linear-gradient"/><clipPath id="clip-path-11" transform="translate(-2.22 -9.67)"><path class="cls-1" d="M69.16,75.58a1.16,1.16,0,0,1,.19,1.31,1,1,0,0,1-.75.59c-.25,0-.49,0-.61-.31s0-.62.3-.66c.14,0,.24.12.22.28v.07a0,0,0,0,0,0,0h.1a.55.55,0,0,0,.36-.2.59.59,0,0,0-.8-.86A1.38,1.38,0,0,0,67.42,77a.94.94,0,0,0,.18.65,1,1,0,0,0,1,.22,2.42,2.42,0,0,0,1.1-.74,3.24,3.24,0,0,1,.94-.8l.38-.19a9.48,9.48,0,0,1-1.89-.59l0,0"/></clipPath><linearGradient id="linear-gradient-11" x1="26.94" y1="75.36" x2="28.08" y2="75.36" gradientTransform="matrix(0, 24.83, 24.83, 0, -1801.81, -599.73)" xlink:href="#linear-gradient"/><clipPath id="clip-path-12" transform="translate(-2.22 -9.67)"><path class="cls-1" d="M83.17,69.63a16.16,16.16,0,0,1,2.59-.21,2.75,2.75,0,0,1-1.26-1.78,3.07,3.07,0,0,1-1.33,2"/></clipPath><linearGradient id="linear-gradient-12" x1="26.94" y1="75.71" x2="28.08" y2="75.71" gradientTransform="matrix(0, 24.83, 24.83, 0, -1795.32, -622.71)" xlink:href="#linear-gradient"/><clipPath id="clip-path-13" transform="translate(-2.22 -9.67)"><path class="cls-1" d="M68.05,69.42a16.13,16.13,0,0,1,2.61.21,3,3,0,0,1-1.33-2,2.7,2.7,0,0,1-1.28,1.76"/></clipPath><linearGradient id="linear-gradient-13" x1="26.94" y1="75.68" x2="28.08" y2="75.68" gradientTransform="matrix(0, 24.83, 24.83, 0, -1809.76, -607.61)" xlink:href="#linear-gradient"/><clipPath id="clip-path-14" transform="translate(-2.22 -9.67)"><path class="cls-1" d="M64.51,71.51a2,2,0,0,1,.64,1,1.89,1.89,0,0,1-.08,1.24,1.46,1.46,0,0,1,1.51-.2s0,0,0-.06l-1-1.09a8.63,8.63,0,0,0-.8-.8,1.25,1.25,0,0,0-.3-.15Z"/></clipPath><linearGradient id="linear-gradient-14" x1="26.94" y1="75.52" x2="28.08" y2="75.52" gradientTransform="matrix(0, 24.83, 24.83, 0, -1809.52, -600.01)" xlink:href="#linear-gradient"/><clipPath id="clip-path-15" transform="translate(-2.22 -9.67)"><path class="cls-1" d="M84.88,75.43a1.51,1.51,0,0,1,1.41.58,2.6,2.6,0,0,1,.16-1.72,12.57,12.57,0,0,1-1.57,1.14"/></clipPath><linearGradient id="linear-gradient-15" x1="26.94" y1="75.45" x2="28.08" y2="75.45" gradientTransform="matrix(0, 24.83, 24.83, 0, -1787.66, -617.69)" xlink:href="#linear-gradient"/><clipPath id="clip-path-16" transform="translate(-2.22 -9.67)"><path class="cls-1" d="M67.6,75.12a5.55,5.55,0,0,1,0,.83,4.47,4.47,0,0,1,.62-.43,1.45,1.45,0,0,1,.74-.1,11.94,11.94,0,0,1-1.55-1.12,2,2,0,0,1,.22.82"/></clipPath><linearGradient id="linear-gradient-16" x1="26.94" y1="75.42" x2="28.08" y2="75.42" gradientTransform="matrix(0, 24.83, 24.83, 0, -1804.43, -600.22)" xlink:href="#linear-gradient"/><clipPath id="clip-path-17" transform="translate(-2.22 -9.67)"><path class="cls-1" d="M75.74,72.68a.72.72,0,0,0-.19.39c0,.2.06.49.26.54a.29.29,0,0,0,.36-.32.22.22,0,0,1-.29,0,.18.18,0,0,1-.1-.13.32.32,0,0,1,.13-.35.27.27,0,0,1,.33,0,.62.62,0,0,1,.22.75,2.53,2.53,0,0,1-.12.23c.31.07.32.08.52.35v-.08a6.46,6.46,0,0,0-.11-.75,1,1,0,0,0-.49-.73.39.39,0,0,0-.18,0,.51.51,0,0,0-.34.13"/></clipPath><linearGradient id="linear-gradient-17" x1="26.94" y1="75.51" x2="28.08" y2="75.51" gradientTransform="matrix(0, 24.83, 24.83, 0, -1798.52, -609.94)" xlink:href="#linear-gradient"/><clipPath id="clip-path-18" transform="translate(-2.22 -9.67)"><path class="cls-1" d="M76.05,74.26a.38.38,0,0,0,0,.37.24.24,0,0,0,.28.1.14.14,0,0,0,.09-.18h0c-.06,0-.1,0-.12,0a.24.24,0,0,1,0-.15.21.21,0,0,1,.38,0,.47.47,0,0,1,0,.51.41.41,0,0,1-.49.13,4.23,4.23,0,0,0,.73.94,1.9,1.9,0,0,0,0-.25.32.32,0,0,0-.2-.27.84.84,0,0,1-.2-.08.18.18,0,0,1-.08-.15c0-.09.08-.11.13-.13a.15.15,0,0,1,.11,0,3.16,3.16,0,0,1,.27.18c0-.13,0-.26,0-.39a1.41,1.41,0,0,0-.19-.62.4.4,0,0,0-.32-.21.36.36,0,0,0-.31.26"/></clipPath><linearGradient id="linear-gradient-18" x1="26.94" y1="75.44" x2="28.08" y2="75.44" gradientTransform="matrix(0, 24.83, 24.83, 0, -1796.68, -608.65)" xlink:href="#linear-gradient"/><clipPath id="clip-path-19" transform="translate(-2.22 -9.67)"><path class="cls-1" d="M79.65,71.54l.85-1.07a1.12,1.12,0,0,1-1,0,1.58,1.58,0,0,1,.16,1.08"/></clipPath><linearGradient id="linear-gradient-19" x1="26.94" y1="75.61" x2="28.08" y2="75.61" gradientTransform="matrix(0, 24.83, 24.83, 0, -1797.23, -615.99)" xlink:href="#linear-gradient"/><clipPath id="clip-path-20" transform="translate(-2.22 -9.67)"><path class="cls-1" d="M73.35,70.48l.83,1a1.64,1.64,0,0,1,.14-1.06,1.07,1.07,0,0,1-1,0"/></clipPath><linearGradient id="linear-gradient-20" x1="26.94" y1="75.6" x2="28.08" y2="75.6" gradientTransform="matrix(0, 24.83, 24.83, 0, -1803.12, -609.83)" xlink:href="#linear-gradient"/><clipPath id="clip-path-21" transform="translate(-2.22 -9.67)"><path class="cls-1" d="M74.71,72.46c.17.3.34.59.5.89a.93.93,0,0,1,.18-.93,1,1,0,0,1-.68,0"/></clipPath><linearGradient id="linear-gradient-21" x1="26.94" y1="75.52" x2="28.08" y2="75.52" gradientTransform="matrix(0, 24.83, 24.83, 0, -1800.07, -609.25)" xlink:href="#linear-gradient"/><clipPath id="clip-path-22" transform="translate(-2.22 -9.67)"><path class="cls-1" d="M75.81,74.46a.58.58,0,0,1,.17-.53.84.84,0,0,1-.59-.23c.15.26.29.52.42.76"/></clipPath><linearGradient id="linear-gradient-22" x1="26.94" y1="75.48" x2="28.08" y2="75.48" gradientTransform="matrix(0, 24.83, 24.83, 0, -1798.27, -608.74)" xlink:href="#linear-gradient"/><clipPath id="clip-path-23" transform="translate(-2.22 -9.67)"><path class="cls-1" d="M77.19,74.2a1.5,1.5,0,0,0-.19.62c0,.14,0,.27,0,.4l.28-.19a.21.21,0,0,1,.11,0,.16.16,0,0,1,.13.13.27.27,0,0,1-.09.15.93.93,0,0,1-.2.08.33.33,0,0,0-.19.26,2.3,2.3,0,0,0,0,.26,4.47,4.47,0,0,0,.73-.94.41.41,0,0,1-.49-.13.49.49,0,0,1,0-.52.21.21,0,0,1,.37,0,.22.22,0,0,1,0,.16s-.06,0-.12,0h0a.13.13,0,0,0,.09.17.23.23,0,0,0,.28-.1.34.34,0,0,0,0-.36.34.34,0,0,0-.3-.26.41.41,0,0,0-.32.2"/></clipPath><linearGradient id="linear-gradient-23" x1="26.94" y1="75.44" x2="28.08" y2="75.44" gradientTransform="matrix(0, 24.83, 24.83, 0, -1795.73, -609.65)" xlink:href="#linear-gradient"/><clipPath id="clip-path-24" transform="translate(-2.22 -9.67)"><path class="cls-1" d="M77.61,72.59a1,1,0,0,0-.49.73,4.85,4.85,0,0,0-.11.75v.08a.61.61,0,0,1,.52-.35,1.34,1.34,0,0,1-.13-.23.62.62,0,0,1,.22-.75.29.29,0,0,1,.34,0,.34.34,0,0,1,.13.35.17.17,0,0,1-.11.13.22.22,0,0,1-.29,0,.29.29,0,0,0,.37.32c.19,0,.29-.34.25-.54a.6.6,0,0,0-.19-.39.49.49,0,0,0-.33-.13.34.34,0,0,0-.18,0"/></clipPath><linearGradient id="linear-gradient-24" x1="26.94" y1="75.51" x2="28.08" y2="75.51" gradientTransform="matrix(0, 24.83, 24.83, 0, -1797.1, -611.42)" xlink:href="#linear-gradient"/><clipPath id="clip-path-25" transform="translate(-2.22 -9.67)"><path class="cls-1" d="M77.88,74a.6.6,0,0,1,.18.53l.41-.76a.77.77,0,0,1-.59.23"/></clipPath><linearGradient id="linear-gradient-25" x1="26.94" y1="75.48" x2="28.08" y2="75.48" gradientTransform="matrix(0, 24.83, 24.83, 0, -1795.87, -611.2)" xlink:href="#linear-gradient"/><clipPath id="clip-path-26" transform="translate(-2.22 -9.67)"><path class="cls-1" d="M78.63,73.34l.5-.89a1.07,1.07,0,0,1-.68,0,.91.91,0,0,1,.18.92"/></clipPath><linearGradient id="linear-gradient-26" x1="26.94" y1="75.53" x2="28.08" y2="75.53" gradientTransform="matrix(0, 24.83, 24.83, 0, -1796.5, -612.98)" xlink:href="#linear-gradient"/><clipPath id="clip-path-27" transform="translate(-2.22 -9.67)"><path class="cls-1" d="M78.11,68.4a4.4,4.4,0,0,0-.93,1.46.61.61,0,0,0-.08.26c.09-.17.22-.39.32-.55a2.17,2.17,0,0,1,.9-.9.32.32,0,0,1,.21-.06.31.31,0,0,1,.19.11.28.28,0,0,1,0,.22.61.61,0,0,1-.19.2c-.23.14-.47.25-.7.39a1.87,1.87,0,0,0-.77,1,1.63,1.63,0,0,0-.05.33c.44-.93,1.06-1.31,2-1a1.72,1.72,0,0,1-.13-.71,1,1,0,0,1,.6-.93.62.62,0,0,1,.77.35.58.58,0,0,1-.05.56.33.33,0,0,1-.47,0s0,0,0,0a.78.78,0,0,0,0,.67.54.54,0,0,0,1,0,1.12,1.12,0,0,0,.07-1.22,1.43,1.43,0,0,0-1.12-.83h-.21a1.75,1.75,0,0,0-1.24.6"/></clipPath><linearGradient id="linear-gradient-27" x1="26.94" y1="75.67" x2="28.08" y2="75.67" gradientTransform="matrix(0, 24.83, 24.83, 0, -1799.9, -616.53)" xlink:href="#linear-gradient"/><clipPath id="clip-path-28" transform="translate(-2.22 -9.67)"><path class="cls-1" d="M82,65.71a1.38,1.38,0,0,0-.87,1.22A1.06,1.06,0,0,0,81.55,68a.53.53,0,0,0,.82-.35.39.39,0,0,0,0-.32,1.25,1.25,0,0,1-.16.17.41.41,0,0,1-.57-.33.62.62,0,0,1,.19-.62.57.57,0,0,1,.69,0,1.06,1.06,0,0,1,.43,1,1.28,1.28,0,0,1-.25.57.92.92,0,0,1-.94.43,1.16,1.16,0,0,1-.64-.4L81,68a1.93,1.93,0,0,1-.28,2.18l.88-.49c.29-.15.6-.28.89-.45A2.44,2.44,0,0,0,83.59,68a2.15,2.15,0,0,0,0-1.52,1.27,1.27,0,0,0-.65-.73,1,1,0,0,0-.5-.13,1.19,1.19,0,0,0-.51.12"/></clipPath><linearGradient id="linear-gradient-28" x1="26.94" y1="75.74" x2="28.08" y2="75.74" gradientTransform="matrix(0, 24.83, 24.83, 0, -1798.14, -621.22)" xlink:href="#linear-gradient"/><clipPath id="clip-path-29" transform="translate(-2.22 -9.67)"><path class="cls-1" d="M86.23,66.32a.8.8,0,0,0-.29,0,1.24,1.24,0,0,0-.87,1,1.57,1.57,0,0,0,0,.65,1.38,1.38,0,0,0,.37.59,1.11,1.11,0,0,0,.53.33,1.07,1.07,0,0,0,.82-.09.89.89,0,0,0,.28-1.13.87.87,0,0,0-.42-.48c-.33-.16-.79-.11-.82.36a.29.29,0,0,0,.12.26c.06,0,.23.1.19,0l-.05-.07c-.08-.16-.06-.21,0-.3a.2.2,0,0,1,.13-.06c.23,0,.39.32.37.54-.05.45-.38.6-.7.46a.92.92,0,0,1,.17-1.71,1.38,1.38,0,0,1,1.56,1l0,.16a1.46,1.46,0,0,1-.46,1.4,2.48,2.48,0,0,1-.4.21H87c.55,0,1.1,0,1.65,0A4.91,4.91,0,0,0,90.72,69a4.4,4.4,0,0,0,1.47-1.26,3.73,3.73,0,0,0,.65-1.27.19.19,0,0,0,0-.08h0v0l-.23.27a2.73,2.73,0,0,1-1.36,1,2.25,2.25,0,0,1-1.06.1,4.33,4.33,0,0,1-.92-.25c-.32-.11-.63-.26-1-.4s-.83-.41-1.26-.6a1.7,1.7,0,0,0-.76-.16h-.09"/></clipPath><linearGradient id="linear-gradient-29" x1="26.94" y1="75.75" x2="28.08" y2="75.75" gradientTransform="matrix(0, 24.83, 24.83, 0, -1791.75, -627.89)" xlink:href="#linear-gradient"/><clipPath id="clip-path-30" transform="translate(-2.22 -9.67)"><path class="cls-1" d="M91.71,73.29a3,3,0,0,1-.84,1.08,1.56,1.56,0,0,1-.84.32,1.19,1.19,0,0,1-.79-.2l-.18-.1a2.92,2.92,0,0,1,.17.36,1,1,0,0,1,0,.2,2.23,2.23,0,0,1-.08.77,1.35,1.35,0,0,1-1.12,1,1,1,0,0,1-.79-.26,1.1,1.1,0,0,1-.34-.85,1.4,1.4,0,0,1,.07-.57.49.49,0,0,1,.45-.34.64.64,0,0,1,.6.37.57.57,0,0,1,0,.51c-.11.16-.19.19-.42.21a.42.42,0,0,0,.34.32c.35.06.6-.22.69-.58a1.12,1.12,0,0,0-.11-.88,1,1,0,0,0-.76-.47,1.55,1.55,0,0,0-.37,0,1.05,1.05,0,0,0-.57.43,1.68,1.68,0,0,0-.12,1.57,1.43,1.43,0,0,0,1.11.86,2.63,2.63,0,0,0,1.72-.39,3.84,3.84,0,0,0,1.22-1.19,7,7,0,0,0,.7-1.36c.13-.34.21-.64.33-1,0-.07.08-.26.08-.26l-.18.37"/></clipPath><linearGradient id="linear-gradient-30" x1="26.94" y1="75.46" x2="28.08" y2="75.46" gradientTransform="matrix(0, 24.83, 24.83, 0, -1784.38, -621.31)" xlink:href="#linear-gradient"/><clipPath id="clip-path-31" transform="translate(-2.22 -9.67)"><path class="cls-1" d="M82.74,76.14l.39.19a3.55,3.55,0,0,1,1,.8,2.34,2.34,0,0,0,1.07.74,1.28,1.28,0,0,0,.3,0h0a.83.83,0,0,0,.66-.26.94.94,0,0,0,.19-.65,1.39,1.39,0,0,0-.78-1.16.59.59,0,0,0-.79.86.47.47,0,0,0,.35.2h.11a0,0,0,0,0,0,0,.2.2,0,0,1,0-.07c0-.16.08-.3.22-.28.31,0,.46.3.31.66a.5.5,0,0,1-.62.31,1,1,0,0,1-.74-.59,1.15,1.15,0,0,1,.18-1.3l0,0a9.65,9.65,0,0,1-1.9.59"/></clipPath><linearGradient id="linear-gradient-31" x1="26.94" y1="75.38" x2="28.08" y2="75.38" gradientTransform="matrix(0, 24.83, 24.83, 0, -1787.14, -615.06)" xlink:href="#linear-gradient"/><clipPath id="clip-path-32" transform="translate(-2.22 -9.67)"><path class="cls-1" d="M88.88,71.58a7.55,7.55,0,0,0-.81.79l-1,1.09s0,0,0,.06a1.5,1.5,0,0,1,1.51.2,1.89,1.89,0,0,1-.08-1.24,2,2,0,0,1,.64-1l.09-.08a1.09,1.09,0,0,0-.29.15"/></clipPath><linearGradient id="linear-gradient-32" x1="26.94" y1="75.56" x2="28.08" y2="75.56" gradientTransform="matrix(0, 24.83, 24.83, 0, -1787.91, -622.57)" xlink:href="#linear-gradient"/></defs><title>CharmHolders</title><path class="cls-2" d="M66.71,75.26H3.31a1.1,1.1,0,0,1-.86-.43,1.07,1.07,0,0,1-.19-.94,17.83,17.83,0,0,1,14-12.43c9.19-1.65,9.16-4.05,9.14-5.8V54.57c-2.49-2.39-3.8-5.82-4.73-9-3.48-.91-4.25-7.35-4.25-8.7v-.08c0-.93,0-3.4,1.48-4.89A3.63,3.63,0,0,1,19.31,31c-1.49-6.68-1.11-12.23,1.05-15a5.31,5.31,0,0,1,4.05-2.1C32.1,8.69,41.6,8.24,47.63,12.84c5.1,3.89,6.62,10.48,4.25,18.19a3.58,3.58,0,0,1,1.37.86c1.47,1.47,1.46,4,1.46,4.88v.09c0,1.29-.84,7.94-4.4,8.73a21,21,0,0,1-5.75,8.78v.77c0,1.43,0,4.39,10.1,6.32A16.52,16.52,0,0,1,67.78,73.91a1.07,1.07,0,0,1-.21.93A1.09,1.09,0,0,1,66.71,75.26ZM4.87,73.07H65.26a14.3,14.3,0,0,0-11-9.45h0c-10.46-2-11.88-5.41-11.88-8.47V53.87a1.1,1.1,0,0,1,.38-.82,19,19,0,0,0,5.7-8.79,1.08,1.08,0,0,1,1-.78h.11c1.85,0,2.92-5,2.92-6.62v-.1c0-.68,0-2.49-.82-3.32A1.65,1.65,0,0,0,50.44,33a1.09,1.09,0,0,1-1-1.46c2.59-7.29,1.46-13.47-3.11-17C41,10.49,32.35,11,25.39,15.89a1.14,1.14,0,0,1-.63.19,3.22,3.22,0,0,0-2.68,1.27c-1.84,2.36-2,7.83-.38,14.28a1.09,1.09,0,0,1-.19.94,1.12,1.12,0,0,1-.87.42,1.63,1.63,0,0,0-1.24.45c-.84.84-.84,2.72-.83,3.33v.09c0,1.36.9,6.62,2.92,6.62a1.09,1.09,0,0,1,1.05.8c.9,3.22,2.15,6.8,4.64,9a1.13,1.13,0,0,1,.37.83v1.54c0,3-.78,6.16-10.94,8A15.67,15.67,0,0,0,4.87,73.07Z" transform="translate(-2.22 -9.67)"/><circle class="cls-3" cx="74.66" cy="61.01" r="22.23"/><g class="cls-4"><rect class="cls-5" x="81.26" y="68.41" width="5.08" height="9.23" transform="translate(4.97 143.89) rotate(-87.5)"/></g><g class="cls-6"><rect class="cls-7" x="67.47" y="68.42" width="5.09" height="9.24" transform="translate(-8.22 130.13) rotate(-87.5)"/></g><g class="cls-8"><rect class="cls-9" x="73.68" y="63.69" width="6.52" height="4.62" transform="translate(5.43 130.31) rotate(-87.5)"/></g><g class="cls-10"><rect class="cls-11" x="63.15" y="63.95" width="3.53" height="7.96" transform="translate(-8 120.15) rotate(-87.5)"/></g><g class="cls-12"><rect class="cls-13" x="62.21" y="72.21" width="4.48" height="5.55" transform="translate(-15.49 126.44) rotate(-87.5)"/></g><g class="cls-14"><rect class="cls-15" x="69.12" y="66.27" width="4.76" height="3.3" transform="translate(-1.69 126.72) rotate(-87.5)"/></g><g class="cls-16"><rect class="cls-17" x="88.2" y="69.54" width="5.17" height="3.6" transform="translate(13.33 149.26) rotate(-87.5)"/></g><g class="cls-18"><rect class="cls-19" x="60.46" y="69.58" width="5.15" height="3.55" transform="translate(-13.21 121.55) rotate(-87.5)"/></g><g class="cls-20"><rect class="cls-21" x="73.31" y="67.31" width="3.23" height="4.04" transform="translate(0.17 131.49) rotate(-87.5)"/></g><g class="cls-22"><rect class="cls-23" x="75.52" y="69.04" width="2.77" height="4.94" transform="translate(-0.11 135.56) rotate(-87.5)"/></g><g class="cls-24"><rect class="cls-25" x="67.93" y="74.87" width="2.56" height="3.72" transform="translate(-12.69 132.87) rotate(-87.5)"/></g><g class="cls-26"><rect class="cls-27" x="83.42" y="67.3" width="2.1" height="2.68" transform="translate(9.99 140.36) rotate(-87.5)"/></g><g class="cls-28"><rect class="cls-29" x="68.31" y="67.3" width="2.08" height="2.69" transform="translate(-4.47 125.27) rotate(-87.5)"/></g><g class="cls-30"><rect class="cls-31" x="64.31" y="71.44" width="2.39" height="2.26" transform="matrix(0.04, -1, 1, 0.04, -12.08, 125.17)"/></g><g class="cls-32"><rect class="cls-33" x="84.77" y="74.33" width="1.79" height="1.64" transform="translate(4.63 147.79) rotate(-87.5)"/></g><g class="cls-34"><rect class="cls-35" x="67.3" y="74.31" width="1.72" height="1.62" transform="translate(-12.09 130.27) rotate(-87.5)"/></g><g class="cls-36"><rect class="cls-37" x="75.36" y="72.65" width="1.66" height="1.41" transform="translate(-2.64 136.6) rotate(-87.5)"/></g><g class="cls-38"><rect class="cls-39" x="75.47" y="74.47" width="1.94" height="0.97" transform="matrix(0.04, -1, 1, 0.04, -4, 138.38)"/></g><g class="cls-40"><rect class="cls-41" x="79.43" y="70.47" width="1.13" height="1.05" transform="translate(3.35 138.15) rotate(-87.5)"/></g><g class="cls-42"><rect class="cls-43" x="73.29" y="70.49" width="1.1" height="1.01" transform="translate(-2.54 132) rotate(-87.5)"/></g><g class="cls-44"><rect class="cls-45" x="74.57" y="72.52" width="0.96" height="0.72" transform="translate(-3.26 135.02) rotate(-87.5)"/></g><g class="cls-46"><rect class="cls-47" x="75.29" y="73.77" width="0.79" height="0.62" transform="translate(-3.84 136.8) rotate(-87.5)"/></g><g class="cls-48"><rect class="cls-49" x="76.46" y="74.46" width="1.94" height="0.98" transform="translate(-3.04 139.37) rotate(-87.5)"/></g><g class="cls-50"><rect class="cls-51" x="76.85" y="72.65" width="1.66" height="1.41" transform="translate(-1.21 138.08) rotate(-87.5)"/></g><g class="cls-52"><rect class="cls-53" x="77.78" y="73.79" width="0.79" height="0.62" transform="translate(-1.49 139.3) rotate(-87.5)"/></g><g class="cls-54"><rect class="cls-55" x="78.31" y="72.52" width="0.96" height="0.72" transform="translate(0.32 138.75) rotate(-87.5)"/></g><g class="cls-56"><rect class="cls-57" x="77.33" y="67.31" width="3.23" height="4.03" transform="translate(4.02 135.51) rotate(-87.5)"/></g><g class="cls-58"><rect class="cls-59" x="79.89" y="66.26" width="4.76" height="3.3" transform="matrix(0.04, -1, 1, 0.04, 8.62, 137.47)"/></g><g class="cls-60"><rect class="cls-61" x="87.18" y="63.93" width="3.53" height="7.95" transform="translate(15 144.15) rotate(-87.5)"/></g><g class="cls-62"><rect class="cls-63" x="86.96" y="72.28" width="4.48" height="5.55" transform="translate(8.11 151.22) rotate(-87.5)"/></g><g class="cls-64"><rect class="cls-65" x="83.3" y="74.87" width="2.52" height="3.72" transform="translate(1.99 148.19) rotate(-87.5)"/></g><g class="cls-66"><rect class="cls-67" x="86.9" y="71.44" width="2.38" height="2.26" transform="translate(9.53 147.75) rotate(-87.5)"/></g></svg>