<svg id="Layer_1" data-name="Layer 1" xmlns="http://www.w3.org/2000/svg" viewBox="0 0 96.14 92.24"><defs><style>.cls-1{fill:#fff;}</style></defs><title>Development</title><path class="cls-1" d="M44.57,97.31H36.82a3.81,3.81,0,0,1-3.88-3.73V88.92a31.17,31.17,0,0,1-8-3.18L21.53,89a4.1,4.1,0,0,1-5.5,0l-5.48-5.26a3.63,3.63,0,0,1,0-5.28L14,75.21a28.86,28.86,0,0,1-3.32-7.65H5.82a3.82,3.82,0,0,1-3.89-3.73V56.4a3.82,3.82,0,0,1,3.89-3.73h4.85A29,29,0,0,1,14,45l-3.43-3.3a3.62,3.62,0,0,1,0-5.27L16,31.18a4,4,0,0,1,5.5,0L25,34.49a31.17,31.17,0,0,1,8-3.18V26.65a3.81,3.81,0,0,1,3.88-3.73h7.75a3.85,3.85,0,0,1,3.81,3h1a20.16,20.16,0,0,1,1.83-4.15L49,19.59a3.62,3.62,0,0,1,0-5.27l2.92-2.81a4.09,4.09,0,0,1,5.5,0l2.24,2.15a22.09,22.09,0,0,1,4.33-1.76V8.8a3.81,3.81,0,0,1,3.89-3.73h4.65A3.82,3.82,0,0,1,76.37,8.8v3.11a22.22,22.22,0,0,1,4.32,1.75l2.24-2.15a4,4,0,0,1,5.5,0l2.93,2.8a3.63,3.63,0,0,1,0,5.28l-2.24,2.15A20.16,20.16,0,0,1,91,25.89h3.23a3.82,3.82,0,0,1,3.89,3.73v4.47a3.82,3.82,0,0,1-3.89,3.73H90.94A20.12,20.12,0,0,1,89.12,42l2.24,2.15a3.63,3.63,0,0,1,0,5.28l-2.92,2.8a4,4,0,0,1-5.5,0L80.7,50.05a21.46,21.46,0,0,1-4.33,1.75v.94a3.79,3.79,0,0,1,3.1,3.66v7.43a3.82,3.82,0,0,1-3.89,3.73H70.72a28.38,28.38,0,0,1-3.31,7.65l3.44,3.3a3.62,3.62,0,0,1,0,5.27L65.38,89a4.09,4.09,0,0,1-5.5,0l-3.44-3.31a31.17,31.17,0,0,1-8,3.18v4.66A3.81,3.81,0,0,1,44.57,97.31Zm-19.84-15a1.61,1.61,0,0,1,.85.24,28.08,28.08,0,0,0,9.25,3.69,1.51,1.51,0,0,1,1.23,1.46v5.85a.75.75,0,0,0,.76.73h7.75a.76.76,0,0,0,.77-.73V87.73a1.51,1.51,0,0,1,1.23-1.46,28,28,0,0,0,9.24-3.69,1.63,1.63,0,0,1,2,.2l4.32,4.14a.78.78,0,0,0,1.08,0l5.47-5.26a.68.68,0,0,0,.22-.52.67.67,0,0,0-.22-.51L64.33,76.5a1.45,1.45,0,0,1-.21-1.88A25.84,25.84,0,0,0,68,65.75a1.55,1.55,0,0,1,1.53-1.19h6.09a.75.75,0,0,0,.76-.73V56.4A.68.68,0,0,0,76.2,56a3.87,3.87,0,0,1-3.72,2.66H67.83a3.82,3.82,0,0,1-3.89-3.73V51.8a21.46,21.46,0,0,1-4.33-1.75L57.37,52.2a4,4,0,0,1-2.88,1.09,14.38,14.38,0,0,1,1.72,6.82c0,8.21-7,14.89-15.51,14.89S25.18,68.32,25.18,60.11s7-14.88,15.52-14.88a15.93,15.93,0,0,1,7.11,1.66A3.64,3.64,0,0,1,49,44.12L51.19,42a20.16,20.16,0,0,1-1.83-4.15H46.13a3.82,3.82,0,0,1-3.89-3.73V29.62A3.76,3.76,0,0,1,45,26.05a.79.79,0,0,0-.44-.13H36.82a.75.75,0,0,0-.76.73v5.84A1.51,1.51,0,0,1,34.83,34a28.17,28.17,0,0,0-9.25,3.69,1.61,1.61,0,0,1-1.95-.2L19.31,33.3a.8.8,0,0,0-1.08,0l-5.47,5.27a.68.68,0,0,0-.23.51.7.7,0,0,0,.23.52l4.31,4.13a1.46,1.46,0,0,1,.21,1.88,25.84,25.84,0,0,0-3.84,8.87,1.56,1.56,0,0,1-1.53,1.19H5.82a.74.74,0,0,0-.76.73v7.43a.75.75,0,0,0,.76.73h6.09a1.56,1.56,0,0,1,1.53,1.19,25.92,25.92,0,0,0,3.84,8.87,1.47,1.47,0,0,1-.21,1.88l-4.31,4.13a.7.7,0,0,0,0,1l5.48,5.25a.78.78,0,0,0,.54.22.81.81,0,0,0,.54-.21l4.31-4.15A1.58,1.58,0,0,1,24.73,82.34Zm16-34.11A11.9,11.9,0,1,0,40.7,72a11.9,11.9,0,1,0,0-23.77Zm18.66-1.56a1.56,1.56,0,0,1,.84.23,19,19,0,0,0,5.66,2.29,1.52,1.52,0,0,1,1.21,1.46v4.26a.75.75,0,0,0,.76.73h4.65a.75.75,0,0,0,.76-.73V50.65a1.52,1.52,0,0,1,1.2-1.46A18.92,18.92,0,0,0,80.1,46.9a1.63,1.63,0,0,1,2,.2l3.1,3a.8.8,0,0,0,1.08,0l2.92-2.81a.71.71,0,0,0,.22-.51.72.72,0,0,0-.22-.52l-3.1-3a1.46,1.46,0,0,1-.22-1.87A17.22,17.22,0,0,0,88.22,36a1.55,1.55,0,0,1,1.53-1.15h4.43a.75.75,0,0,0,.76-.73V29.62a.75.75,0,0,0-.76-.73H89.75a1.56,1.56,0,0,1-1.53-1.15,17.12,17.12,0,0,0-2.39-5.43,1.46,1.46,0,0,1,.22-1.87l3.1-3a.71.71,0,0,0,0-1l-2.93-2.8a.8.8,0,0,0-1.08,0l-3.1,3a1.6,1.6,0,0,1-1.94.2,19,19,0,0,0-5.66-2.3,1.51,1.51,0,0,1-1.2-1.45V8.8a.75.75,0,0,0-.76-.73H67.83a.75.75,0,0,0-.76.73v4.26a1.52,1.52,0,0,1-1.21,1.46,18.61,18.61,0,0,0-5.66,2.29,1.62,1.62,0,0,1-1.94-.21l-3.1-3a.78.78,0,0,0-1.08,0l-2.92,2.81a.71.71,0,0,0-.22.51.72.72,0,0,0,.22.52l3.1,3a1.44,1.44,0,0,1,.21,1.86,17.35,17.35,0,0,0-2.39,5.43,1.55,1.55,0,0,1-1.52,1.15H46.13a.76.76,0,0,0-.77.73v4.47a.76.76,0,0,0,.77.73h4.43A1.54,1.54,0,0,1,52.08,36a17.35,17.35,0,0,0,2.39,5.43,1.46,1.46,0,0,1-.21,1.87l-3.1,3a.7.7,0,0,0-.23.52.68.68,0,0,0,.23.51l2.92,2.81a.75.75,0,0,0,.54.21.76.76,0,0,0,.54-.21l3.1-3A1.57,1.57,0,0,1,59.36,46.67Zm10.79-4.39A10.66,10.66,0,0,1,59.29,31.85a10.87,10.87,0,0,1,21.73,0A10.67,10.67,0,0,1,70.15,42.28Zm0-17.85a7.6,7.6,0,0,0-7.74,7.42,7.75,7.75,0,0,0,15.48,0A7.59,7.59,0,0,0,70.15,24.43Z" transform="translate(-1.93 -5.07)"/></svg>