<svg id="Layer_1" data-name="Layer 1" xmlns="http://www.w3.org/2000/svg" xmlns:xlink="http://www.w3.org/1999/xlink" viewBox="0 0 71 54.12"><defs><style>.cls-1{fill:none;}.cls-2{clip-path:url(#clip-path);}.cls-3{fill:#fff;}</style><clipPath id="clip-path" transform="translate(0 -0.41)"><rect class="cls-1" width="71" height="55"/></clipPath></defs><title>Discord</title><g class="cls-2"><path class="cls-3" d="M60.1,4.9A58,58,0,0,0,45.65.42a.21.21,0,0,0-.23.11c-.62,1.11-1.31,2.55-1.8,3.69a53.85,53.85,0,0,0-16.23,0A38.33,38.33,0,0,0,25.56.53a.21.21,0,0,0-.23-.11A58.23,58.23,0,0,0,10.88,4.9a.16.16,0,0,0-.1.08C1.58,18.73-.94,32.14.29,45.39a.27.27,0,0,0,.1.17,59,59,0,0,0,17.72,9,.23.23,0,0,0,.25-.08A41.53,41.53,0,0,0,22,48.54a.22.22,0,0,0-.12-.31,40.22,40.22,0,0,1-5.54-2.64.23.23,0,0,1,0-.38l1.1-.86a.21.21,0,0,1,.23,0,42,42,0,0,0,35.68,0,.24.24,0,0,1,.23,0c.36.3.73.59,1.1.87a.23.23,0,0,1,0,.38,36.52,36.52,0,0,1-5.54,2.63.24.24,0,0,0-.12.32,47.72,47.72,0,0,0,3.63,5.89.21.21,0,0,0,.24.09,58.68,58.68,0,0,0,17.76-9,.2.2,0,0,0,.09-.17A59.58,59.58,0,0,0,60.2,5a.16.16,0,0,0-.1-.08M23.73,37.33c-3.5,0-6.38-3.22-6.38-7.16S20.17,23,23.73,23s6.43,3.24,6.38,7.16-2.83,7.16-6.38,7.16m23.59,0c-3.5,0-6.38-3.22-6.38-7.16S43.76,23,47.32,23s6.43,3.24,6.38,7.16-2.8,7.16-6.38,7.16" transform="translate(0 -0.41)"/></g></svg>