<svg id="Layer_1" data-name="Layer 1" xmlns="http://www.w3.org/2000/svg" viewBox="0 0 100.2 100.2"><defs><style>.cls-1{fill:none;stroke:#fff;stroke-miterlimit:10;stroke-width:4px;}</style></defs><title>Facebook_01</title><path class="cls-1" d="M66.49,98.18a.37.37,0,0,1-.37-.37V59a.36.36,0,0,1,.37-.37H78.54L81,44.48H66.49a.36.36,0,0,1-.37-.37V39.64a1.93,1.93,0,0,1,0-.24,5,5,0,0,1,5.35-4.73H81V20.61H69.65c-13.09.56-16,6.82-16.22,16v7.45a.37.37,0,0,1-.37.37H43V58.66H53.06a.37.37,0,0,1,.37.37V97.81a.38.38,0,0,1-.37.37H11.29A9.37,9.37,0,0,1,2,88.86V11.29A9.35,9.35,0,0,1,11.29,2H88.86a9.37,9.37,0,0,1,9.32,9.31V88.86a9.38,9.38,0,0,1-9.32,9.32Z" transform="translate(0.02 0.02)"/></svg>