<svg id="Layer_1" data-name="Layer 1" xmlns="http://www.w3.org/2000/svg" viewBox="0 0 98.5 96.07"><defs><style>.cls-1{fill:#fff;}</style></defs><title>GitHub</title><path class="cls-1" d="M49.83,2.42a49.26,49.26,0,0,0-15.56,96c2.46.45,3.35-1.07,3.35-2.37s0-4.27-.06-8.38c-13.7,3-16.59-6.6-16.59-6.6-2.24-5.69-5.47-7.2-5.47-7.2-4.47-3.06.34-3,.34-3,4.94.35,7.54,5.07,7.54,5.07,4.39,7.53,11.53,5.36,14.33,4.1a10.6,10.6,0,0,1,3.13-6.59C29.91,72.2,18.41,68,18.41,49.1a19,19,0,0,1,5.07-13.21c-.51-1.25-2.2-6.26.48-13,0,0,4.13-1.33,13.55,5a46.58,46.58,0,0,1,24.65,0c9.41-6.38,13.54-5,13.54-5,2.69,6.78,1,11.79.49,13A19,19,0,0,1,81.25,49.1c0,18.92-11.51,23.08-22.49,24.31,1.77,1.52,3.35,4.52,3.35,9.12C62.11,89.11,62,94.42,62,96c0,1.32.89,2.84,3.39,2.37a49.27,49.27,0,0,0-15.6-96" transform="translate(-0.58 -2.42)"/></svg>