<svg id="Layer_1" data-name="Layer 1" xmlns="http://www.w3.org/2000/svg" viewBox="0 0 99.85 99.85"><defs><style>.cls-1{fill:none;stroke-width:4px;}.cls-1,.cls-2{stroke:#fff;stroke-miterlimit:10;}.cls-2{fill:#fff;stroke-width:2px;}</style></defs><title>Instagram_01</title><path class="cls-1" d="M81.75,97.85H18.1C2.18,97.85,2,81.91,2,81.75V18.1C2,2.18,17.94,2,18.1,2H81.75c15.92,0,16.1,15.94,16.1,16.1V81.75C97.85,97.67,81.91,97.85,81.75,97.85Z"/><path class="cls-1" d="M48.71,78A25.83,25.83,0,1,1,74.53,52.13,25.85,25.85,0,0,1,48.71,78Z"/><path class="cls-2" d="M79.16,27.52a5.06,5.06,0,1,0-5.06-5.06,5.07,5.07,0,0,0,5.06,5.06"/></svg>