<svg id="Layer_1" data-name="Layer 1" xmlns="http://www.w3.org/2000/svg" viewBox="0 0 97.01 54.93"><defs><style>.cls-1{fill:#fff;}</style></defs><title>M_01</title><path class="cls-1" d="M28.45,77.46A27.46,27.46,0,1,1,55.92,50,27.45,27.45,0,0,1,28.45,77.46" transform="translate(-1 -22.54)"/><path class="cls-1" d="M86.19,49.4A51.7,51.7,0,0,1,86,54.79a41.53,41.53,0,0,1-1.76,8.61,27.74,27.74,0,0,1-2.84,6.31,17,17,0,0,1-3.13,3.84,10.15,10.15,0,0,1-3.77,2.22,7.85,7.85,0,0,1-5.88-.47,11.92,11.92,0,0,1-3.47-2.64,20.86,20.86,0,0,1-3.46-5.2,33.42,33.42,0,0,1-2.43-7,44.13,44.13,0,0,1-.86-5,47.86,47.86,0,0,1-.28-7.18c0-1.51.18-3,.38-4.51A42,42,0,0,1,59.89,37,30.06,30.06,0,0,1,62.5,30.9,17.83,17.83,0,0,1,66,26.44a10.24,10.24,0,0,1,3.91-2.26,7.69,7.69,0,0,1,5.42.38,11.35,11.35,0,0,1,3.76,2.75A20.14,20.14,0,0,1,82.31,32,34.19,34.19,0,0,1,85,39.64a42.48,42.48,0,0,1,.8,4.62,46.39,46.39,0,0,1,.35,5.14" transform="translate(-1 -22.54)"/><path class="cls-1" d="M98,49.6c0,2-.08,4.07-.19,6.1-.09,1.46-.2,2.91-.35,4.36a53.71,53.71,0,0,1-1.18,7.36,20.86,20.86,0,0,1-1.2,3.71,7.49,7.49,0,0,1-.79,1.41,2.67,2.67,0,0,1-.81.76,1.16,1.16,0,0,1-1.23,0,2.48,2.48,0,0,1-.7-.63,7.86,7.86,0,0,1-1.14-2.09,24.27,24.27,0,0,1-1.09-3.74c-.35-1.53-.61-3.09-.81-4.65s-.38-3.38-.5-5.07q-.33-4.68-.22-9.36c0-1.53.1-3.06.19-4.59q.2-3.13.64-6.24a41.73,41.73,0,0,1,1.29-6.07A12.14,12.14,0,0,1,91.11,28a9.91,9.91,0,0,1,.68-.92,1.37,1.37,0,0,1,.34-.29,1.2,1.2,0,0,1,1.48,0,3.36,3.36,0,0,1,.63.62,7.57,7.57,0,0,1,1,1.71A25.09,25.09,0,0,1,96.39,33c.37,1.63.64,3.28.85,4.94.26,2,.45,4,.55,6s.15,3.77.22,5.66" transform="translate(-1 -22.54)"/></svg>