<svg id="Layer_1" data-name="Layer 1" xmlns="http://www.w3.org/2000/svg" viewBox="0 0 99.85 99.85"><defs><style>.cls-1{fill:none;stroke:#fff;stroke-miterlimit:10;stroke-width:4px;}.cls-2{fill:#fff;}</style></defs><title>Telegram_01</title><path class="cls-1" d="M81.75,97.85H18.1C2.18,97.85,2,81.91,2,81.75V18.1C2,2.18,17.94,2,18.1,2H81.75c15.92,0,16.1,15.94,16.1,16.1V81.75C97.85,97.67,81.91,97.85,81.75,97.85Z"/><path class="cls-2" d="M72.67,29.57a1.46,1.46,0,0,1,0,.41v0L64.3,72.66,64,73c-.17.13-.32.22-1.05-.06L49.66,62.72l-8,7.33L43.3,59.26,65.07,39c.91-.84.6-1,.6-1,.06-1-1.35-.29-1.35-.29l-27.46,17v0L23.7,50.19h0l0,0,.07,0,.07,0,.07,0,23.69-10,16.63-7c4.63-2,8-3.38,8.25-3.45ZM72.9,25a6.86,6.86,0,0,0-2.11.5h0c-.64.25-3.7,1.55-8.34,3.5L45.8,36c-11.94,5-23.67,10-23.67,10l.14-.06a7.52,7.52,0,0,0-1.66.85A4.51,4.51,0,0,0,19.29,48a3.87,3.87,0,0,0-.63,2.51,4.63,4.63,0,0,0,2,3.15,6.54,6.54,0,0,0,1.49.79h0l11,3.71c.49,1.59,3.35,11,4,13.15A8.08,8.08,0,0,0,38.54,74a3.09,3.09,0,0,0,.86.79l.41.19.14,0-.11,0,.09,0,.26.06a3.75,3.75,0,0,0,3.15-.55l.08-.06,6.5-5.92L60.82,77l.25.11a5.8,5.8,0,0,0,5.78-.54,5.89,5.89,0,0,0,1.69-2.25l.08-.21L77,31a6.11,6.11,0,0,0,0-3,4,4,0,0,0-1.76-2.36A4.17,4.17,0,0,0,72.9,25"/></svg>