<svg id="Layer_1" data-name="Layer 1" xmlns="http://www.w3.org/2000/svg" viewBox="0 0 99.85 99.85"><defs><style>.cls-1{fill:none;stroke:#fff;stroke-miterlimit:10;stroke-width:4px;}</style></defs><title>Twitter_01</title><path class="cls-1" d="M81.75,97.85H18.1C2.18,97.85,2,81.91,2,81.75V18.1C2,2.18,17.94,2,18.1,2H81.75c15.92,0,16.1,15.94,16.1,16.1V81.75C97.85,97.67,81.91,97.85,81.75,97.85Z"/><path class="cls-1" d="M38.6,77.88h-.25a40.51,40.51,0,0,1-18.74-4.61.81.81,0,0,1-.43-.77.76.76,0,0,1,.25-.55.83.83,0,0,1,.6-.22,22.17,22.17,0,0,0,14.85-4.86.31.31,0,0,0,.07-.14.29.29,0,0,0-.05-.2.26.26,0,0,0-.17-.09c-5.31-.6-9.87-4.84-10.81-8.43a1,1,0,0,1,0-.29.82.82,0,0,1,.9-.74,13.5,13.5,0,0,0,3,0,.25.25,0,0,0,.19-.17.26.26,0,0,0-.15-.33,12.87,12.87,0,0,1-8.76-11.6.9.9,0,0,1,.09-.42.83.83,0,0,1,1.1-.36,7.85,7.85,0,0,0,3.22.84.25.25,0,0,0,.21-.1.26.26,0,0,0,0-.36,13.72,13.72,0,0,1-3.25-16.22.75.75,0,0,1,.22-.27.81.81,0,0,1,.59-.17.84.84,0,0,1,.55.3c6,7.41,16.88,12.62,27.13,13A13.69,13.69,0,0,1,62.2,25h0A14,14,0,0,1,72,29a19.6,19.6,0,0,0,6.78-2.18.82.82,0,0,1,1.11,1.09,16.59,16.59,0,0,1-3.4,4.65.29.29,0,0,0-.09.24.27.27,0,0,0,.32.2,25.1,25.1,0,0,0,3.49-1,.85.85,0,0,1,.78.12.81.81,0,0,1,.31.53.75.75,0,0,1-.15.6,23,23,0,0,1-5.24,5.18v.36c0,.67,0,1.36,0,2A37.33,37.33,0,0,1,38.6,77.88ZM80.23,32Z"/></svg>